# xmcd
#
# Track frame offsets:
#	150
#	11440
#	24125
#	31022
#	42260
#	52632
#	61292
#	70050
#	82735
#	94425
#	108327
#	116682
#	124545
#	135095
#	143320
#	154325
#	163437
#	176845
#
# Disc length: 2519 seconds
#
# Revision: 0
# Processed by: cddbd v1.5.2PL0 Copyright (c) Steve Scherf et al.
# Submitted via: EasyCDDAExtractor 10.2.0.1
#
DISCID=d509d512
DTITLE=Ettore Righello - PIANOBAR
DYEAR=2000
DGENRE=Musical
TTITLE0=hablame de amor
TTITLE1=gardenia azul
TTITLE2=new york
TTITLE3=a través de los años
TTITLE4=laguna soñadora
TTITLE5=tiernamente
TTITLE6=tu que haz apresado mi corazon
TTITLE7=nadie despues de ti
TTITLE8=camina
TTITLE9=polvo de estrellas
TTITLE10=fascinación
TTITLE11=pero el amor no
TTITLE12=serenata del valle claro
TTITLE13=tango del mar
TTITLE14=ramona
TTITLE15=tiempo tempestuoso
TTITLE16=segundos minutos y horas
TTITLE17=historia de una amistad
EXTD=YEAR: 2000\n
EXTT0=
EXTT1=
EXTT2=
EXTT3=
EXTT4=
EXTT5=
EXTT6=
EXTT7=
EXTT8=
EXTT9=
EXTT10=
EXTT11=
EXTT12=
EXTT13=
EXTT14=
EXTT15=
EXTT16=
EXTT17=
PLAYORDER=
